<svg role="img" viewBox="0 0 100 100" xmlns="http://www.w3.org/2000/svg" id="Asus--Streamline-Simple-Icons" height="100" width="100"><desc>Asus Streamline Icon: https://streamlinehq.com</desc><title>ASUS</title><path d="M99.60000000000001 44.95V39.675000000000004h-19.4c-4.05 0 -5.875 2.5 -6.175000000000001 4.925v0.075h-5.700000000000001v5.275h5.675000000000001zm-25.6 1.9000000000000001 -5.700000000000001 -0.325v6.075c0 1.9000000000000001 -0.9500000000000001 2.475 -4.25 2.475H59.5c-2.725 0 -3.8750000000000004 -0.775 -3.8750000000000004 -2.475v-6.650000000000001l-5.775 -0.425v7.550000000000001h-0.125c-0.325 -2.2 -1.1500000000000001 -4.75 -6.650000000000001 -5.125L25 46.75000000000001c0 2.7750000000000004 1.975 4.425000000000001 5.075 4.75l12.600000000000001 1.2750000000000001c1 0.075 1.725 0.375 1.725 1.2 0 0.9 -0.75 1 -1.9000000000000001 1H24.775000000000002V46.75000000000001l-5.775 -0.375v13.950000000000001h23.525000000000002c5.25 0 6.925 -2.725 7.175000000000001 -5h0.125c0.65 3.6 3.8000000000000003 5 9.125 5h5.875c6.2250000000000005 0 9.175 -1.9000000000000001 9.175 -6.3500000000000005zm18.325 1.0750000000000002 -18.075000000000003 -1.0750000000000002c0 2.7750000000000004 1.8250000000000002 4.625000000000001 4.925 4.875l12.875 1c1 0.075 1.6 0.325 1.6 1.1500000000000001 0 0.775 -0.7000000000000001 1.0750000000000002 -2.1500000000000004 1.0750000000000002h-17.55v5.375000000000001h17.925c5.65 0 8.125 -1.975 8.125 -6.4750000000000005 0 -4.05 -2.225 -5.575000000000001 -7.675000000000001 -5.925zm-42.47500000000001 -8.25h5.775v5.275h-5.775zM15.825000000000001 46.12500000000001l-6.275 -0.625L0 60.325h7.025zm32.975 -6.450000000000001h-17.625000000000004c-4.1000000000000005 0 -5.9 2.5500000000000003 -6.325 5v-5H15.075000000000001c-1.3750000000000002 0 -2.025 0.425 -2.6750000000000003 1.3750000000000002l-2.7 3.9000000000000004h39.1Z" fill="#ffffff" stroke-width="4.1667"></path></svg>