<svg role="img" viewBox="0 0 100 100" xmlns="http://www.w3.org/2000/svg" id="Republicofgamers--Streamline-Simple-Icons" height="100" width="100"><desc>Republicofgamers Streamline Icon: https://streamlinehq.com</desc><title>Republic of Gamers</title><path d="M89.1275 23.26375c-5.61125 0.04791666666666667 -14.307500000000001 0.8142083333333334 -24.739583333333336 4.069041666666667 -6.676666666666668 2.077125 -16.316666666666666 11.425125000000001 -34.269125 28.784291666666668 -2.373875 1.3350000000000002 -11.125708333333336 -3.7133333333333334 -16.170208333333335 -6.0875 0 0 8.30375 13.207916666666668 11.271125000000001 17.065416666666668 4.451041666666667 6.083333333333334 12.613958333333334 9.643749999999999 12.613958333333334 9.643749999999999 -0.7418333333333335 -0.7420833333333334 -6.375791666666667 -6.678750000000001 -8.007833333333334 -10.09125 -1.0385833333333334 -1.6320833333333333 0.1424166666666667 -4.010000000000001 8.154291666666667 -9.944583333333334C45.25 51.36166666666667 71.07041666666667 29.556583333333336 95.99625000000002 23.621833333333335c0 0 -2.504166666666667 -0.39533333333333337 -6.868750000000001 -0.3580416666666667V23.26375ZM100 32.37833333333334c-8.605416666666668 0.89025 -16.916666666666668 3.411583333333333 -24.78041666666667 7.120791666666667C59.49291666666667 46.917500000000004 32.934583333333336 65.90708333333333 32.934583333333336 65.90708333333333c1.1869166666666668 0.7416666666666667 2.3775 1.481666666666667 3.564416666666667 2.075 12.75975 5.637916666666667 31.6035 9.048333333333336 35.16433333333333 7.861250000000001 9.940833333333334 -3.2637500000000004 21.06666666666667 -24.177500000000002 24.479166666666668 -33.82166666666667 0 0 -10.388750000000002 4.153333333333333 -20.922916666666666 9.049583333333334 -8.753750000000002 4.154583333333334 -18.391666666666666 8.903333333333334 -18.391666666666666 8.903333333333334l24.479166666666668 -7.422083333333334s-6.531666666666667 15.431666666666667 -15.136666666666668 17.212083333333332c-8.605416666666668 1.7804166666666668 -23.738750000000003 -4.305 -23.738750000000003 -4.305 1.1870833333333333 -1.03875 17.20916666666667 -12.762083333333335 54.59791666666667 -28.043791666666667 1.6320833333333333 -1.1869583333333336 2.6737500000000005 -3.1086666666666667 2.970416666666667 -5.037416666666667V32.37833333333334ZM0 47.05916666666667c1.483666666666667 4.0062500000000005 3.414166666666667 7.718750000000001 5.639666666666668 11.279583333333335 2.6705833333333335 3.4125 13.644875000000003 6.23 15.128583333333335 6.526666666666667C13.94325 60.11750000000001 0 47.05916666666667 0 47.05916666666667Z" fill="#ffffff" stroke-width="4.1667"></path></svg>