<svg role="img" viewBox="0 0 100 100" xmlns="http://www.w3.org/2000/svg" id="Valve--Streamline-Simple-Icons" height="100" width="100"><desc>Valve Streamline Icon: https://streamlinehq.com</desc><title>Valve</title><path d="M0 35.74583333333334v28.508333333333333h100V35.75zm7.500000000000001 5.895833333333334h3.304166666666667l3.233333333333334 12.683333333333334 3.166666666666667 -12.683333333333334h3.4833333333333334l-5.112500000000001 16.7875H12.5zm22.86666666666667 0h4.5166666666666675l4.770833333333334 16.808333333333334h-3.3916666666666666l-1.1250000000000002 -4.195833333333333H30.116666666666667s-0.875 3.3750000000000004 -1.0583333333333333 4.125c-1.0083333333333333 0.07083333333333335 -3.4583333333333335 0 -3.4583333333333335 0zm17.433333333333334 0h3.3000000000000003v13.966666666666667h7.041666666666667v2.8208333333333337h-10.341666666666669zm14.375000000000002 0h3.4l3.233333333333334 12.520833333333334 3.141666666666667 -12.520833333333334h3.3958333333333335l-5.091666666666667 16.808333333333334h-2.9833333333333334zm20.11666666666667 0h7.041666666666667v2.1750000000000003h-4.5166666666666675v2.4333333333333336h4.125v2.1791666666666667h-4.125v2.5h4.5166666666666675v2.1791666666666667h-7.041666666666667zm-49.59166666666667 2.833333333333334 -1.7750000000000001 7.091666666666667h3.7083333333333335z" fill="#ffffff" stroke-width="4.1667"></path></svg>