<svg role="img" viewBox="0 0 100 100" xmlns="http://www.w3.org/2000/svg" id="Wordpress--Streamline-Simple-Icons" height="100" width="100"><desc>Wordpress Streamline Icon: https://streamlinehq.com</desc><title>WordPress</title><path d="M89.45416666666668 28.437500000000004c3.5 6.404166666666667 5.491666666666667 13.75 5.491666666666667 21.5625 0 16.57916666666667 -8.983333333333334 31.06666666666667 -22.345833333333335 38.854166666666664l13.729166666666668 -39.69583333333333c2.5625 -6.416666666666667 3.4166666666666665 -11.545833333333334 3.4166666666666665 -16.1 0 -1.6875000000000002 -0.10833333333333334 -3.2500000000000004 -0.29166666666666674 -4.625000000000001m-33.25416666666667 0.4375c2.6958333333333337 -0.125 5.133333333333334 -0.4375 5.133333333333334 -0.4375 2.425 -0.3125 2.141666666666667 -3.8750000000000004 -0.27916666666666673 -3.7458333333333336 0 0 -7.3125 0.5625000000000001 -12 0.5625000000000001 -4.433333333333334 0 -11.875000000000002 -0.625 -11.875000000000002 -0.625 -2.4375 -0.125 -2.754166666666667 3.5625 -0.3125 3.6875000000000004 0 0 2.2500000000000004 0.25416666666666665 4.6875 0.375l7 19.187500000000004 -9.875000000000002 29.500000000000004L22.308333333333334 28.750000000000004c2.704166666666667 -0.125 5.141666666666667 -0.41666666666666674 5.141666666666667 -0.41666666666666674 2.4375 -0.3125 2.1500000000000004 -3.8750000000000004 -0.27083333333333337 -3.733333333333334 0 0 -7.275 0.5750000000000001 -11.975000000000001 0.5750000000000001 -0.8333333333333335 0 -1.8250000000000002 -0.03333333333333334 -2.875 -0.0625C20.4625 13.125 34.3125 5.062500000000001 50 5.062500000000001c11.704166666666667 0 22.354166666666668 4.466666666666668 30.358333333333334 11.804166666666669 -0.19166666666666668 -0.0125 -0.3791666666666667 -0.0375 -0.5875 -0.0375 -4.416666666666667 0 -7.550000000000001 3.8458333333333337 -7.550000000000001 7.9750000000000005 0 3.7083333333333335 2.1375 6.845833333333334 4.416666666666667 10.545833333333334 1.7125000000000001 3 3.7083333333333335 6.845833333333334 3.7083333333333335 12.404166666666667 0 3.8125000000000004 -1.475 8.308333333333334 -3.4208333333333334 14.495833333333335l-4.479166666666667 14.937500000000002 -16.25 -48.375 0.0041666666666666675 0.05833333333333334zM50 94.93333333333334c-4.4125 0 -8.670833333333334 -0.6375000000000001 -12.700000000000001 -1.8208333333333335l13.4875 -39.19166666666667 13.8125 37.862500000000004c0.1 0.22083333333333335 0.20833333333333337 0.4208333333333334 0.325 0.6208333333333333 -4.666666666666668 1.6375000000000002 -9.687500000000002 2.5375 -14.925 2.5375M5.045833333333334 50c0 -6.5166666666666675 1.4000000000000001 -12.708333333333334 3.895833333333334 -18.291666666666668L30.375000000000004 90.45416666666667C15.391666666666667 83.16666666666667 5.05 67.79583333333335 5.045833333333334 50M50 0C22.4375 0 0 22.4375 0 50s22.4375 50 50 50 50 -22.4375 50 -50S77.5625 0 50 0" fill="#ffffff" stroke-width="4.1667"></path></svg>